<svg width="103" height="103" viewBox="0 0 103 103" fill="none" xmlns="http://www.w3.org/2000/svg">
<path d="M101.264 51.5C101.264 78.9839 78.9839 101.264 51.5 101.264C24.0161 101.264 1.73596 78.9839 1.73596 51.5C1.73596 24.0161 24.0161 1.73596 51.5 1.73596C78.9839 1.73596 101.264 24.0161 101.264 51.5Z" stroke="url(#paint0_linear_344_52)" stroke-width="3.47191"/>
<path d="M81.3287 34.8143C81.3723 34.8542 81.4058 34.9038 81.4267 34.959C81.4475 35.0143 81.4551 35.0736 81.4488 35.1324C81.4425 35.1911 81.4224 35.2475 81.3903 35.297C81.3582 35.3466 81.3149 35.3879 81.2638 35.4176C76.9851 37.8985 73.3119 40.0771 69.5649 42.1203C69.0369 42.4082 67.9985 42.1782 67.3924 41.8384C62.6087 39.1566 57.8567 36.4187 53.1365 33.6248C52.0851 33.0016 51.2778 32.9869 50.2338 33.6072C45.5724 36.3765 40.8845 39.1009 36.17 41.7804C35.1965 42.3343 34.742 42.9427 34.7571 44.1181C34.8253 49.4167 34.7482 54.7176 34.8591 60.0148C34.8971 60.4435 35.0259 60.8593 35.2371 61.2343C35.4483 61.6093 35.737 61.935 36.084 62.1897C40.7197 65.002 45.4486 67.6603 50.117 70.4199C51.0423 70.9669 51.7623 70.9343 52.6775 70.3966C57.3532 67.65 62.0679 64.9699 66.7588 62.2488C66.9168 62.1552 67.068 62.0504 67.211 61.9352L66.8169 60.8177H57.2717C57.1951 60.8177 57.1204 60.7942 57.0575 60.7504C56.9947 60.7067 56.9468 60.6447 56.9202 60.5729V60.5729C56.8952 60.5056 56.8901 60.4326 56.9055 60.3625C56.9209 60.2925 56.9562 60.2283 57.0072 60.1778C57.2398 59.9176 57.5044 59.6877 57.7945 59.4936C63.5753 56.1674 69.2737 52.6764 75.2127 49.6596C76.9843 48.7597 79.4355 49.1665 81.5795 49.0792C81.7881 49.0707 82.2193 49.8009 82.2224 50.1908C82.2609 54.9908 82.4638 59.8056 82.1589 64.5868C81.9301 68.1742 79.9522 71.0858 76.8208 72.945C70.2838 76.826 63.7075 80.6405 57.0917 84.3883C53.0214 86.6969 48.8977 86.2073 44.9717 83.997C38.5646 80.39 32.1731 76.7492 25.8775 72.9526C22.3245 70.81 20.4954 67.4002 20.4406 63.2664C20.3424 55.8486 20.3528 48.4298 20.4718 41.0098C20.5423 36.8119 22.4051 33.3604 26.0366 31.1934C32.7265 27.2014 39.4706 23.2931 46.2967 19.54C49.9906 17.509 53.9023 17.6913 57.5764 19.7701C64.086 23.453 70.5758 27.175 76.9833 31.0312C78.5012 31.9447 79.7266 33.3442 81.3287 34.8143Z" fill="url(#paint1_linear_344_52)"/>
<defs>
<linearGradient id="paint0_linear_344_52" x1="1.55472" y1="103" x2="103" y2="103" gradientUnits="userSpaceOnUse">
<stop stop-color="#C53345"/>
<stop offset="1" stop-color="#6233C5"/>
</linearGradient>
<linearGradient id="paint1_linear_344_52" x1="36.5" y1="42.5" x2="75" y2="72.5" gradientUnits="userSpaceOnUse">
<stop stop-color="#D52369"/>
<stop offset="1" stop-color="#F3629C"/>
</linearGradient>
</defs>
</svg>
