<svg width="90" height="90" viewBox="0 0 90 90" fill="none" xmlns="http://www.w3.org/2000/svg">
<path d="M88.7865 45C88.7865 69.1826 69.1826 88.7865 45 88.7865C20.8174 88.7865 1.21348 69.1826 1.21348 45C1.21348 20.8174 20.8174 1.21348 45 1.21348C69.1826 1.21348 88.7865 20.8174 88.7865 45Z" stroke="url(#paint0_linear_353_67)" stroke-width="2.42697"/>
<path d="M67.7986 31.8269C67.832 31.8575 67.8577 31.8955 67.8737 31.9379C67.8897 31.9803 67.8955 32.0258 67.8907 32.0709C67.8858 32.1159 67.8705 32.1592 67.8458 32.1972C67.8212 32.2353 67.7879 32.2669 67.7488 32.2898C64.4661 34.1931 61.648 35.8645 58.7734 37.432C58.3683 37.6529 57.5716 37.4765 57.1066 37.2158C53.4366 35.1583 49.7909 33.0578 46.1695 30.9143C45.3629 30.4361 44.7435 30.4249 43.9425 30.9008C40.3663 33.0254 36.7698 35.1156 33.1528 37.1712C32.4059 37.5962 32.0572 38.063 32.0688 38.9647C32.1212 43.0298 32.062 47.0967 32.1471 51.1607C32.1762 51.4896 32.2751 51.8085 32.4371 52.0963C32.5992 52.384 32.8207 52.6339 33.0868 52.8293C36.6434 54.9869 40.2714 57.0263 43.8529 59.1435C44.5629 59.5631 45.1152 59.5381 45.8174 59.1256C49.4045 57.0183 53.0217 54.9622 56.6205 52.8746C56.7418 52.8028 56.8577 52.7224 56.9675 52.634L56.6651 51.7767H49.342C49.2833 51.7767 49.2259 51.7586 49.1777 51.7251C49.1295 51.6915 49.0927 51.6439 49.0724 51.5888V51.5888C49.0532 51.5372 49.0493 51.4812 49.0611 51.4274C49.0729 51.3737 49.1 51.3245 49.1391 51.2857C49.3176 51.0861 49.5205 50.9097 49.7432 50.7608C54.1782 48.2089 58.5499 45.5306 63.1063 43.2162C64.4656 42.5258 66.3461 42.8379 67.991 42.7709C68.151 42.7644 68.4818 43.3246 68.4842 43.6237C68.5137 47.3062 68.6694 51.0001 68.4354 54.6683C68.2599 57.4206 66.7425 59.6543 64.3401 61.0807C59.3249 64.0582 54.2795 66.9846 49.2039 69.86C46.0812 71.6311 42.9175 71.2555 39.9055 69.5598C34.99 66.7925 30.0864 63.9993 25.2565 61.0866C22.5306 59.4427 21.1273 56.8267 21.0853 53.6553C21.0099 47.9644 21.0179 42.2726 21.1092 36.58C21.1633 33.3594 22.5924 30.7114 25.3785 29.0489C30.511 25.9863 35.6851 22.9878 40.922 20.1084C43.756 18.5502 46.757 18.6902 49.5758 20.285C54.5699 23.1105 59.549 25.966 64.4648 28.9245C65.6293 29.6253 66.5694 30.699 67.7986 31.8269Z" fill="url(#paint1_linear_353_67)"/>
<defs>
<linearGradient id="paint0_linear_353_67" x1="1.35849" y1="90" x2="90" y2="90" gradientUnits="userSpaceOnUse">
<stop stop-color="#6233C5"/>
<stop offset="1" stop-color="#3390C5"/>
</linearGradient>
<linearGradient id="paint1_linear_353_67" x1="21.9143" y1="71.0222" x2="68.5623" y2="71.0222" gradientUnits="userSpaceOnUse">
<stop stop-color="#4BB7E6"/>
<stop offset="1" stop-color="#4B76E6"/>
</linearGradient>
</defs>
</svg>
