<svg width="436" height="544" viewBox="0 0 436 544" fill="none" xmlns="http://www.w3.org/2000/svg">
<path d="M17.2845 316.144L210.775 129.652L436 351.825L242.51 538.317L17.2845 316.144Z" fill="url(#paint0_linear_305_540)" fill-opacity="0.3"/>
<g filter="url(#filter0_d_305_540)">
<path d="M76.9672 367.541C73.7978 366.601 69.8543 366.558 67.5813 364.58C49.8247 349.13 32.379 333.319 14.8582 317.596C7.15833 310.686 5.68229 301.348 6.05171 291.865C7.37234 257.969 9.09121 224.089 10.7066 190.205C11.4445 174.728 12.208 159.251 13.1769 143.788C13.6296 141.312 14.3792 138.9 15.4093 136.605C19.0035 137.794 22.5023 139.256 25.8753 140.979C50.8596 156.085 75.6687 171.485 100.731 186.46C103.908 188.358 108.235 188.317 112.03 189.175C110.301 216.504 108.572 243.834 106.843 271.163C105.932 284.827 105.021 298.491 104.084 312.559C119.223 314.743 132.821 316.704 146.418 318.665L148.806 321.204C146.707 321.648 144.565 321.855 142.42 321.822C131.906 320.516 121.45 318.658 110.91 317.704C107.547 317.4 102.006 318.188 100.836 320.333C92.3936 335.801 84.8178 351.747 76.9672 367.541ZM74.0337 332.389C74.7159 331.734 75.3981 331.078 76.0802 330.423C66.747 322.099 57.4138 313.776 47.3191 304.773C56.6476 314.416 65.3407 323.403 74.0338 332.389H74.0337Z" fill="#D52369"/>
<path d="M148.807 321.204C148.012 320.358 147.216 319.511 146.421 318.665C133.229 302.831 120.037 286.997 106.845 271.163C108.574 243.833 110.303 216.503 112.032 189.173C124.217 165.764 136.401 142.356 148.585 118.949C150.916 120.967 154.054 122.54 155.444 125.077C162.718 138.353 169.84 151.73 176.475 165.337C194.545 202.392 212.274 239.616 230.363 276.662C232.121 280.263 235.446 283.092 238.043 286.28C231.54 304.948 217.257 317.641 203.401 330.346C195.096 337.961 185.177 343.8 175.983 350.436C166.924 340.692 157.866 330.948 148.807 321.204ZM148.845 201.085V161.424C147.937 161.44 147.029 161.457 146.121 161.474C142.908 174.82 142.773 188.138 148.845 201.085V201.085Z" fill="#A00A41"/>
<path d="M148.584 118.949C136.4 142.356 124.215 165.764 112.031 189.173C108.236 188.316 103.909 188.358 100.731 186.459C75.6694 171.485 50.8602 156.085 25.876 140.978C22.503 139.256 19.0042 137.794 15.4099 136.605C19.9836 126.12 22.9064 114.44 29.4286 105.368C52.3455 73.4911 76.511 42.5192 100.174 11.1821C103.813 6.36265 108.489 2.92943 114.149 6.43497C128.011 15.0225 141.441 24.3143 155.045 33.3225C155.721 43.5707 155.398 54.0088 157.285 64.0272C160.971 83.5869 161.357 102.205 148.584 118.949Z" fill="#F3629C"/>
<path d="M148.583 118.949C161.357 102.206 160.97 83.5872 157.285 64.0274C155.397 54.0091 155.72 43.571 155.044 33.3228C182.843 52.5142 207.676 75.711 228.742 102.166C238.908 114.869 238.042 130.616 238.926 145.64C239.778 160.108 239.813 174.624 240.207 189.118C235.386 192.981 230.565 196.846 226.244 200.31C230.746 202.744 236.002 205.587 241.258 208.429C241.131 230.345 241.143 252.262 240.753 274.173C240.681 278.224 238.986 282.246 238.041 286.28C235.444 283.092 232.119 280.263 230.361 276.662C212.272 239.616 194.543 202.392 176.473 165.336C169.838 151.73 162.716 138.353 155.443 125.077C154.052 122.54 150.915 120.967 148.583 118.949ZM234.429 148.891C233.634 147.923 232.84 146.955 232.046 145.987C221.257 153.986 210.467 161.984 199.678 169.983C200.392 170.922 201.106 171.86 201.82 172.799C212.689 164.83 223.559 156.861 234.429 148.891ZM196.426 176.31C195.659 175.622 194.892 174.934 194.125 174.246C192.435 176.435 190.744 178.623 189.054 180.812C189.708 181.32 190.361 181.828 191.014 182.336C192.818 180.327 194.622 178.318 196.426 176.31ZM226.071 200.306L240.203 188.975L241.258 208.562L226.071 200.306Z" fill="#D8316C"/>
<path d="M148.806 321.203C157.864 330.947 166.923 340.691 175.982 350.436C166.32 354.221 156.95 359.528 146.933 361.466C127.498 365.228 107.721 367.276 88.0328 369.585C84.4731 370.003 80.6641 368.274 76.9686 367.538C84.818 351.746 92.3939 335.8 100.836 320.332C102.006 318.187 107.547 317.399 110.91 317.703C121.45 318.657 131.906 320.515 142.42 321.821C144.565 321.854 146.707 321.646 148.806 321.203V321.203Z" fill="#8B0851"/>
<path d="M106.841 271.164C120.033 286.998 133.225 302.832 146.416 318.666C132.818 316.704 119.22 314.743 104.081 312.56C105.019 298.491 105.93 284.828 106.841 271.164Z" fill="#8B0851"/>
<path d="M74.0335 332.389C65.3404 323.403 56.6473 314.416 47.3188 304.773C57.4136 313.776 66.7468 322.099 76.08 330.423C75.3978 331.078 74.7156 331.734 74.0335 332.389Z" fill="#F3629C"/>
<path d="M148.843 201.085C142.771 188.138 142.905 174.82 146.119 161.473C147.027 161.457 147.935 161.44 148.843 161.423V201.085Z" fill="#D52369"/>
<path d="M234.427 148.891C223.558 156.86 212.688 164.83 201.818 172.799C201.104 171.86 200.39 170.921 199.677 169.982C210.466 161.984 221.255 153.985 232.045 145.987C232.839 146.955 233.633 147.923 234.427 148.891Z" fill="#F3629C"/>
<path d="M196.424 176.31C194.62 178.319 192.817 180.328 191.013 182.336C190.359 181.828 189.706 181.32 189.053 180.812C190.743 178.624 192.433 176.435 194.123 174.246C194.89 174.934 195.657 175.622 196.424 176.31Z" fill="#F3629C"/>
</g>
<defs>
<filter id="filter0_d_305_540" x="0" y="0" width="247.258" height="376.65" filterUnits="userSpaceOnUse" color-interpolation-filters="sRGB">
<feFlood flood-opacity="0" result="BackgroundImageFix"/>
<feColorMatrix in="SourceAlpha" type="matrix" values="0 0 0 0 0 0 0 0 0 0 0 0 0 0 0 0 0 0 127 0" result="hardAlpha"/>
<feOffset dy="1"/>
<feGaussianBlur stdDeviation="3"/>
<feComposite in2="hardAlpha" operator="out"/>
<feColorMatrix type="matrix" values="0 0 0 0 0.952941 0 0 0 0 0.384314 0 0 0 0 0.611765 0 0 0 0.2 0"/>
<feBlend mode="normal" in2="BackgroundImageFix" result="effect1_dropShadow_305_540"/>
<feBlend mode="normal" in="SourceGraphic" in2="effect1_dropShadow_305_540" result="shape"/>
</filter>
<linearGradient id="paint0_linear_305_540" x1="115.668" y1="220.195" x2="337.617" y2="447.774" gradientUnits="userSpaceOnUse">
<stop offset="0.162674"/>
<stop offset="1" stop-opacity="0"/>
</linearGradient>
</defs>
</svg>
